# AST/ASF file generated using VICON BodyLanguage
# -----------------------------------------------
:version 1.10
:name VICON
:units
  mass 1.0
  length 0.45
  angle deg
:documentation
   .ast/.asf automatically generated from VICON data using
   VICON BodyBuilder and BodyLanguage model FoxedUp or BRILLIANT.MOD
:root
   order TX TY TZ RX RY RZ
   axis XYZ
   position 0 0 0  
   orientation 0 0 0 
:bonedata
  begin
     id 1 
     name lhipjoint
     direction 0.655637 -0.713449 0.247245 
     length 2.52691 
     axis 0 0 0  XYZ
  end
  begin
     id 2 
     name lfemur
     direction 0.34202 -0.939693 0  
     length 7.59371  
     axis 0 0 20  XYZ
    dof rx ry rz
    limits (-160.0 20.0)
           (-70.0 70.0)
           (-60.0 70.0)
  end
  begin
     id 3 
     name ltibia
     direction 0.34202 -0.939693 0   
     length 7.28717   
     axis 0 0 20   XYZ
    dof rx
    limits (-10.0 170.0)
  end
  begin
     id 4 
     name lfoot
     direction 0.0886837 -0.243657 0.965798   
     length 2.2218   
     axis -90 7.62852e-016 20   XYZ
    dof rx rz
    limits (-45.0 90.0)
           (-70.0 20.0)
  end
  begin
     id 5 
     name ltoes
     direction 1.53547e-011 -4.22004e-011 1   
     length 1.11249   
     axis -90 7.62852e-016 20   XYZ
    dof rx
    limits (-90.0 20.0)
  end
  begin
     id 6 
     name rhipjoint
     direction -0.645062 -0.722004 0.250209   
     length 2.49697  
     axis 0 0 0  XYZ 
  end
  begin
     id 7 
     name rfemur
     direction -0.34202 -0.939693 0   
     length 7.58734   
     axis 0 0 -20   XYZ
    dof rx ry rz
    limits (-160.0 20.0)
           (-70.0 70.0)
           (-70.0 60.0)
  end
  begin
     id 8 
     name rtibia
     direction -0.34202 -0.939693 0   
     length 7.21538   
     axis 0 0 -20   XYZ
    dof rx
    limits (-10.0 170.0)
 end
 begin
     id 9 
     name rfoot
     direction -0.102907 -0.282735 0.953662   
     length 2.23735  
     axis -90 -7.62852e-016 -20   XYZ
    dof rx rz
    limits (-45.0 90.0)
           (-20.0 70.0)
  end
  begin
     id 10 
     name rtoes
     direction -1.5354e-011 -4.21751e-011 1   
     length 1.11569   
     axis -90 -7.62852e-016 -20   XYZ
    dof rx
    limits (-90.0 20.0)
  end
  begin
     id 11 
     name lowerback
     direction 0.00952301 0.997604 -0.0685217   
     length 2.05943   
     axis 0 0 0   XYZ
    dof rx ry rz
    limits (-20.0 45.0)
           (-30.0 30.0)
           (-30.0 30.0)
  end
  begin
     id 12 
     name upperback
     direction 0.00494399 0.999577 -0.0286701   
     length 2.06523   
     axis 0 0 0   XYZ
    dof rx ry rz
    limits (-20.0 45.0)
           (-30.0 30.0)
           (-30.0 30.0)
  end
  begin
     id 13 
     name thorax
     direction 0.000729686 0.999992 0.00388603   
     length 2.06807   
     axis 0 0 0   XYZ
    dof rx ry rz
    limits (-20.0 45.0)
           (-30.0 30.0)
           (-30.0 30.0)
  end
  begin
     id 14 
     name lowerneck
     direction 0.00452882 0.995459 0.0950816   
     length 1.57426   
     axis 0 0 0   XYZ
    dof rx ry rz
    limits (-20.0 45.0)
           (-30.0 30.0)
           (-30.0 30.0)
  end
  begin
     id 15 
     name upperneck
     direction 0.021922 0.997711 -0.0639762   
     length 1.56399   
     axis 0 0 0   XYZ
    dof rx ry rz
    limits (-20.0 45.0)
           (-30.0 30.0)
           (-30.0 30.0)
  end
  begin
     id 16
     name head
     direction 0.008024 0.999444 -0.0323691  
     length 1.6265  
     axis 0 0 0   XYZ
    dof rx ry rz
    limits (-20.0 45.0)
           (-30.0 30.0)
           (-30.0 30.0)
  end
  begin
     id 17 
     name lclavicle
     direction 0.967826 0.247107 -0.0474446  
     length 3.6598  
     axis 0 0 0   XYZ
    dof ry rz
    limits (-20.0 10.0)
           (0.0 20.0)
  end
  begin
     id 18 
     name lhumerus
     direction 1 -4.48971e-011 -2.90544e-027   
     length 4.86513   
     axis 180 -30 -90   XYZ
    dof rx ry rz
    limits (-60.0 90.0)
           (-90.0 90.0)
           (-90.0 90.0)
  end
  begin
     id 19
     name lradius
     direction 1 -4.48958e-011 1.79638e-026   
     length 3.35554   
     axis 180 -30 -90   XYZ
    dof rx
    limits (-10.0 170.0)
  end
  begin
     id 20
     name lwrist
     direction 1 -4.48952e-011 3.34345e-026   
     length 1.67777   
     axis -2.22354e-014 90 90   XYZ
    dof ry
    limits (-180.0 0.0)
 end
  begin
     id 21 
     name lhand
     direction 1 -4.49055e-011 6.6869e-026   
     length 0.661175   
     axis -4.26681e-014 90 90   XYZ
    dof rx rz
    limits (-90.0 90.0)
           (-45.0 45.0)
  end
  begin
     id 22 
     name lfingers
     direction 1 -4.48731e-011 1.33738e-025   
     length 0.533057   
     axis -8.53362e-014 90 90   XYZ
    dof rx
    limits (0.0 90.0)
  end
  begin
     id 23
     name lthumb
     direction 0.707107 -6.35005e-011 0.707107   
     length 0.765366   
     axis -90 45 2.85299e-015   XYZ
    dof rx rz
    limits (-45.0 45.0)
           (-45.0 45.0)
  end
  begin
     id 24 
     name rclavicle
     direction -0.973174 0.211421 -0.0907389   
     length 3.59444  
     axis 0 0 0   XYZ 
    dof ry rz
    limits (-10.0 20.0)
           (-20.0 0.0)
  end
  begin
     id 25 
     name rhumerus
     direction -1 -4.48964e-011 1.56311e-027  
     length 5.02649   
     axis 180 30 90   XYZ
    dof rx ry rz
    limits (-90.0 60.0)
           (-90.0 90.0)
           (-90.0 90.0)
  end
  begin
     id 26 
     name rradius
     direction -1 -4.48948e-011 2.01724e-026   
     length 3.36431   
     axis 180 30 90   XYZ
    dof rx
    limits (-10.0 170.0)
  end
  begin
     id 27 
     name rwrist
     direction -1 -4.49008e-011 3.34345e-026   
     length 1.68216   
     axis -2.22354e-014 -90 -90   XYZ
    dof ry
    limits (-180.0 0.0)
  end
  begin
     id 28
     name rhand
     direction -1 -4.49013e-011 6.6869e-026   
     length 0.730406   
     axis -4.26681e-014 -90 -90   XYZ
    dof rx rz
    limits (-90.0 90.0)
           (-45.0 45.0)
  end
  begin
     id 29
     name rfingers
     direction -1 -4.48867e-011 1.33738e-025   
     length 0.588872   
     axis -8.53362e-014 -90 -90   XYZ
    dof rx
    limits (0.0 90.0)
  end
  begin
     id 30
     name rthumb
     direction -0.707107 -6.34907e-011 0.707107   
     length 0.845506   
     axis -90 -45 -2.85299e-015   XYZ
    dof rx rz
    limits (-45.0 45.0)
           (-45.0 45.0)
  end
:hierarchy
  begin
    root lhipjoint rhipjoint lowerback
    lhipjoint lfemur
    lfemur ltibia
    ltibia lfoot
    lfoot ltoes
    rhipjoint rfemur
    rfemur rtibia
    rtibia rfoot
    rfoot rtoes
    lowerback upperback
    upperback thorax
    thorax lowerneck lclavicle rclavicle
    lowerneck upperneck
    upperneck head
    lclavicle lhumerus
    lhumerus lradius
    lradius lwrist
    lwrist lhand lthumb
    lhand lfingers
    rclavicle rhumerus
    rhumerus rradius
    rradius rwrist
    rwrist rhand rthumb
    rhand rfingers
  end

#!OML:ASF H:\Terrain\Patient Classification 1\Takeo\Monday\TakeoMonday.ASF
:FULLY-SPECIFIED
:DEGREES
49
root 9.50115 16.2845 -1.8617 21.5403 -0.0153186 -0.716475
lowerback 26.3172 -1.20207 2.44122
upperback 7.7936 -0.904788 0.117344
thorax -5.95658 -0.436714 -0.996763
lowerneck -11.9731 -0.22235 -1.04733
upperneck -23.4077 -0.244215 0.120057
head -5.19936 -0.0519822 0.218943
rclavicle -4.77083e-015 2.23633e-015
rhumerus -54.3739 10.909 -75.8016
rradius 31.3161
rwrist -15.1877
rhand -30.4357 27.9857
rfingers 7.12502
rthumb -3.73825 -1.96129
lclavicle -4.77083e-015 2.23633e-015
lhumerus -59.3442 -8.86847 66.7074
lradius 33.9365
lwrist 27.9913
lhand -29.3443 16.5753
lfingers 7.12502
lthumb -2.68418 46.5381
rfemur -55.1391 5.21944 21.3148
rtibia 59.1504
rfoot -24.871 -9.97074
rtoes 0.955697
lfemur -55.1053 -0.395259 -22.4102
ltibia 60.2934
lfoot -23.7803 9.20115
ltoes -3.70102
50
root 9.50055 16.1354 -1.88825 22.0968 -0.232402 -0.2569
lowerback 26.6626 -1.13345 1.924
upperback 8.09951 -0.957363 -0.0823732
thorax -5.78525 -0.456171 -0.901585
lowerneck -11.7387 -0.218442 -0.751383
upperneck -24.2475 -0.304815 -0.0864846
head -5.50601 -0.0941774 0.104773
rclavicle 8.84592e-015 -5.86415e-015
rhumerus -55.9958 10.6617 -75.6146
rradius 31.2048
rwrist -15.4959
rhand -32.5965 27.8183
rfingers 7.12502
rthumb -5.82463 -2.08166
lclavicle 8.84592e-015 -5.86415e-015
lhumerus -60.9809 -8.6526 66.2887
lradius 33.1932
lwrist 28.4547
lhand -31.0196 17.1759
lfingers 7.12502
lthumb -4.30206 47.1122
rfemur -57.1523 5.06069 20.8576
rtibia 61.3836
rfoot -25.4561 -10.0083
rtoes 0.260437
lfemur -56.8737 -0.469286 -23.0135
ltibia 62.2939
lfoot -24.425 9.27895
ltoes -4.22788
51
root 9.50114 15.9797 -1.91572 22.7054 -0.219779 -0.052952
lowerback 27.0339 -1.16452 1.76203
upperback 8.2814 -1.03753 -0.185032
thorax -5.76552 -0.491644 -0.893987
lowerneck -11.3256 -0.173772 -0.435614
upperneck -25.0939 -0.335573 -0.426785
head -5.84527 -0.115051 -0.056952
rclavicle 5.96354e-015 2.48481e-016
rhumerus -57.8263 10.4881 -75.6076
rradius 31.0571
rwrist -15.8293
rhand -34.0778 27.5312
rfingers 7.12502
rthumb -7.25466 -2.32444
lclavicle 5.96354e-015 2.48481e-016
lhumerus -62.7792 -8.24159 65.9019
lradius 32.4213
lwrist 27.9958
lhand -30.2438 18.2128
lfingers 7.12502
lthumb -3.55288 48.1629
rfemur -59.2266 4.80272 20.7981
rtibia 63.6465
rfoot -25.7379 -10.4659
rtoes -1.58997
lfemur -58.723 -0.74303 -23.2171
ltibia 64.3254
lfoot -25.0364 9.42494
ltoes -4.34852
52
root 9.49877 15.8188 -1.94212 23.2135 -0.00594827 0.0217597
lowerback 27.5031 -1.21963 1.80774
upperback 8.53357 -1.08173 -0.152072
thorax -5.71227 -0.509625 -0.867138
lowerneck -11.1743 -0.271628 -0.402705
upperneck -25.8464 -0.533376 -0.678651
head -6.1173 -0.198173 -0.140533
rclavicle -1.86858e-014 5.2181e-015
rhumerus -59.4449 10.0206 -75.4748
rradius 30.7567
rwrist -16.2379
rhand -34.5704 27.443
rfingers 7.12502
rthumb -7.73011 -2.39575
lclavicle -1.86858e-014 5.2181e-015
lhumerus -64.4724 -7.99927 66.0299
lradius 31.6414
lwrist 27.3033
lhand -29.0218 18.1639
lfingers 7.12502
lthumb -2.37274 48.1305
rfemur -61.1027 4.47035 20.932
rtibia 65.9107
rfoot -26.1539 -10.6958
rtoes -3.08733
lfemur -60.5346 -1.11189 -23.1946
ltibia 66.3827
lfoot -25.7016 9.46106
ltoes -3.62571
53
root 9.50046 15.6664 -1.95882 23.6599 0.108552 0.374061
lowerback 27.9734 -1.24392 1.58701
upperback 8.76509 -1.15911 -0.164947
thorax -5.67831 -0.543829 -0.726498
lowerneck -10.6942 -0.456176 -0.687517
upperneck -26.8112 -0.784238 -0.613096
head -6.51245 -0.294406 -0.06369
rclavicle -5.71506e-015 4.62174e-015
rhumerus -61.0294 9.69094 -75.4131
rradius 30.2936
rwrist -16.7743
rhand -34.4978 27.4312
rfingers 7.12502
rthumb -7.66011 -2.41005
lclavicle -5.71506e-015 4.62174e-015
lhumerus -66.1397 -7.69944 66.1233
lradius 30.9034
lwrist 26.8583
lhand -29.195 18.0877
lfingers 7.12502
lthumb -2.54002 48.0524
rfemur -62.8931 4.01713 20.7214
rtibia 68.1751
rfoot -26.7261 -10.5198
rtoes -3.88099
lfemur -62.1997 -1.52345 -23.5105
ltibia 68.3713
lfoot -26.468 9.49081
ltoes -2.79331
54
root 9.50586 15.5115 -1.96745 24.1651 0.150138 0.618078
lowerback 28.3412 -1.29189 1.46118
upperback 8.89358 -1.2511 -0.254367
thorax -5.71189 -0.585351 -0.719787
lowerneck -9.73716 -0.480045 -0.839965
upperneck -27.9555 -0.815836 -0.512436
head -7.04846 -0.29268 0.00057526
rclavicle 1.35174e-014 -9.79014e-015
rhumerus -62.7952 9.44491 -75.6223
rradius 29.9452
rwrist -17.1466
rhand -34.2995 27.0719
rfingers 7.12502
rthumb -7.46868 -2.77623
lclavicle 1.35174e-014 -9.79014e-015
lhumerus -67.9384 -7.46 66.1677
lradius 30.2447
lwrist 26.7226
lhand -29.3113 17.9284
lfingers 7.12502
lthumb -2.65234 47.8917
rfemur -64.7527 3.63671 20.6044
rtibia 70.4756
rfoot -27.4607 -10.348
rtoes -4.23735
lfemur -63.8559 -1.86376 -23.7394
ltibia 70.3175
lfoot -27.3011 9.56567
ltoes -2.13941
55
root 9.51087 15.3469 -1.97808 24.6971 0.0929796 1.01014
lowerback 28.537 -1.3456 1.1923
upperback 9.10557 -1.39983 -0.443075
thorax -5.57048 -0.652373 -0.724914
lowerneck -9.30372 -0.370313 -0.755671
upperneck -28.731 -0.688147 -0.572402
head -7.38465 -0.227627 -0.0362177
rclavicle -1.65985e-014 6.11263e-015
rhumerus -64.2979 9.10531 -75.9575
rradius 29.6437
rwrist -17.3936
rhand -34.6714 26.7692
rfingers 7.12502
rthumb -7.82761 -3.06592
lclavicle -1.65985e-014 6.11263e-015
lhumerus -69.4856 -7.14397 66.2672
lradius 29.4847
lwrist 26.6319
lhand -28.8656 17.7172
lfingers 7.12502
lthumb -2.22187 47.6854
rfemur -66.6857 3.27172 20.32
rtibia 72.8259
rfoot -28.2217 -10.2713
rtoes -4.31107
lfemur -65.5125 -2.21974 -24.1535
ltibia 72.2196
lfoot -27.9847 9.76723
ltoes -1.27362
56
root 9.51619 15.1798 -1.99192 25.3528 0.029944 1.56215
lowerback 28.5308 -1.4153 0.841656
upperback 9.31961 -1.59175 -0.63814
thorax -5.32978 -0.74055 -0.67933
lowerneck -9.90649 -0.215405 -0.467565
upperneck -28.5959 -0.550694 -0.946458
head -7.24412 -0.163278 -0.216774
rclavicle 5.1684e-015 4.67144e-015
rhumerus -65.4962 8.62139 -76.1329
rradius 29.0917
rwrist -17.4531
rhand -35.622 27.5386
rfingers 7.12502
rthumb -8.74508 -2.26022
lclavicle 5.1684e-015 4.67144e-015
lhumerus -70.8514 -6.71155 66.3554
lradius 28.7575
lwrist 26.5975
lhand -27.9885 17.6884
lfingers 7.12502
lthumb -1.37481 47.6637
rfemur -68.7591 2.86867 19.7679
rtibia 75.1859
rfoot -29.0153 -9.74761
rtoes -3.5526
lfemur -67.3154 -2.65794 -24.7631
ltibia 74.1355
lfoot -28.438 10.1434
ltoes -0.734216
57
root 9.51696 15.0054 -2.00848 26.1085 -0.015451 2.00678
lowerback 28.5085 -1.4432 0.524826
upperback 9.44614 -1.71485 -0.746417
thorax -5.17521 -0.798342 -0.579291
lowerneck -10.4888 -0.096756 -0.450936
upperneck -28.4007 -0.423399 -1.18349
head -7.08595 -0.0860467 -0.303115
rclavicle -1.6201e-014 -1.78906e-015
rhumerus -66.6669 7.97805 -76.0466
rradius 28.4983
rwrist -17.2544
rhand -36.406 28.4824
rfingers 7.12502
rthumb -9.50155 -1.28339
lclavicle -1.6201e-014 -1.78906e-015
lhumerus -72.2749 -6.45437 66.9374
lradius 28.2148
lwrist 26.9826
lhand -27.5406 17.8223
lfingers 7.12502
lthumb -0.942263 47.8
rfemur -70.9931 2.56452 19.2603
rtibia 77.5343
rfoot -29.7831 -8.99118
rtoes -2.88339
lfemur -69.2985 -3.0248 -25.2465
ltibia 76.1268
lfoot -28.9999 10.26
ltoes -0.81667
58
root 9.51643 14.8239 -2.0217 26.6124 0.14699 2.13264
lowerback 28.8728 -1.54986 0.631365
upperback 9.48053 -1.81899 -0.807249
thorax -5.31442 -0.844234 -0.668215
lowerneck -10.49 -0.0762928 -0.665585
upperneck -28.5412 -0.35338 -1.05007
head -7.13391 -0.0359373 -0.224207
rclavicle 8.74653e-015 1.59028e-015
rhumerus -67.9749 7.2861 -76.0597
rradius 27.929
rwrist -16.8944
rhand -36.933 27.5123
rfingers 7.12502
rthumb -10.01 -2.2297
lclavicle 8.74653e-015 1.59028e-015
lhumerus -73.6409 -5.98874 67.0907
lradius 27.6632
lwrist 26.8385
lhand -27.261 18.0097
lfingers 7.12502
lthumb -0.672122 47.9883
rfemur -72.8746 2.29797 19.2158
rtibia 79.8237
rfoot -30.5819 -8.56705
rtoes -2.52753
lfemur -71.0486 -3.30201 -25.361
ltibia 78.1501
lfoot -29.596 10.2995
ltoes -2.01745
59
root 9.51973 14.6479 -2.03012 26.8532 0.64046 2.03081
lowerback 29.488 -1.82709 1.21301
upperback 9.50472 -1.99763 -0.815219
thorax -5.59572 -0.92216 -0.941875
lowerneck -10.3368 -0.0686691 -0.632723
upperneck -28.7186 -0.359476 -1.11071
head -7.21919 -0.03482 -0.250344
rclavicle 4.03533e-014 -9.74045e-015
rhumerus -69.1332 6.37743 -75.7639
rradius 27.3219
rwrist -16.5033
rhand -37.0796 23.5759
rfingers 7.12502
rthumb -10.1514 -6.15916
lclavicle 4.03533e-014 -9.74045e-015
lhumerus -74.9261 -5.24133 66.5906
lradius 27.2669
lwrist 26.1106
lhand -26.8135 17.869
lfingers 7.12502
lthumb -0.240006 47.8486
rfemur -74.3329 1.93068 19.5714
rtibia 82.0273
rfoot -31.4148 -8.42475
rtoes -1.35338
lfemur -72.4808 -3.66492 -25.1693
ltibia 80.128
lfoot -29.9775 10.5273
ltoes -2.65495
60
root 9.52569 14.4806 -2.0386 27.0493 0.935563 2.11848
lowerback 29.9107 -2.00678 1.49339
upperback 9.73598 -2.13519 -0.849926
thorax -5.54517 -0.9805 -1.09094
lowerneck -10.2989 -0.0667187 -0.458093
upperneck -29.1267 -0.426861 -1.36214
head -7.3675 -0.0640777 -0.363815
rclavicle -1.59028e-014 -1.49089e-015
rhumerus -69.7325 5.22358 -74.9237
rradius 26.768
rwrist -16.2717
rhand -34.9696 22.5273
rfingers 7.12502
rthumb -8.11547 -7.29685
lclavicle -1.59028e-014 -1.49089e-015
lhumerus -75.9759 -4.57218 66.5647
lradius 27.3169
lwrist 25.9117
lhand -27.0532 17.8513
lfingers 7.12502
lthumb -0.471485 47.8305
rfemur -75.7888 1.60829 19.6617
rtibia 84.1485
rfoot -31.8867 -8.42632
rtoes -0.852001
lfemur -73.7078 -4.03911 -25.2517
ltibia 81.9365
lfoot -30.2635 11.0991
ltoes -2.6601
61
root 9.53454 14.3136 -2.04584 27.2943 0.944733 2.46894
lowerback 30.1965 -2.07866 1.41991
upperback 10.0096 -2.24618 -0.988222
thorax -5.37489 -1.02674 -1.16327
lowerneck -10.1564 -0.0997126 -0.296975
upperneck -29.7996 -0.539565 -1.55852
head -7.62695 -0.116326 -0.456487
rclavicle 1.11319e-014 -1.00386e-014
rhumerus -70.3339 4.07546 -74.2583
rradius 26.4595
rwrist -15.7908
rhand -33.9508 24.3589
rfingers 7.12502
rthumb -7.13212 -5.50089
lclavicle 1.11319e-014 -1.00386e-014
lhumerus -76.8321 -3.82214 66.5556
lradius 27.5865
lwrist 25.8523
lhand -27.2545 17.531
lfingers 7.12502
lthumb -0.665914 47.5097
rfemur -77.2742 1.32314 19.3577
rtibia 86.2155
rfoot -32.2279 -8.2477
rtoes -1.43929
lfemur -74.9633 -4.40499 -25.646
ltibia 83.6367
lfoot -30.7795 11.5643
ltoes -3.0379
62
root 9.54198 14.1555 -2.04535 27.5324 1.15405 3.14737
lowerback 30.5433 -2.25946 1.19395
upperback 10.1617 -2.52915 -1.11556
thorax -5.36838 -1.15589 -1.07383
lowerneck -10.0238 -0.0916485 -0.356805
upperneck -30.3178 -0.568429 -1.69428
head -7.83217 -0.107577 -0.493297
rclavicle 1.78906e-014 -1.59028e-014
rhumerus -71.0121 2.67559 -73.1845
rradius 26.1426
rwrist -14.4309
rhand -33.5343 25.7966
rfingers 7.12502
rthumb -6.73004 -4.07649
lclavicle 1.78906e-014 -1.59028e-014
lhumerus -77.6602 -2.76066 66.2424
lradius 27.9226
lwrist 25.8486
lhand -27.1158 16.8595
lfingers 7.12502
lthumb -0.531897 46.8386
rfemur -78.6359 0.66817 18.8793
rtibia 88.2633
rfoot -32.7113 -8.29882
rtoes -3.03054
lfemur -76.1935 -5.07485 -26.1967
ltibia 85.3115
lfoot -31.7017 11.2593
ltoes -2.13381
63
root 9.549 13.9879 -2.04163 27.7827 1.49656 3.68384
lowerback 30.8392 -2.47724 1.1493
upperback 10.2824 -2.80132 -1.1626
thorax -5.37512 -1.27946 -1.00251
lowerneck -10.0027 -0.0574757 -0.545679
upperneck -30.6396 -0.519861 -1.70968
head -7.95039 -0.056814 -0.469178
rclavicle -1.35174e-014 6.60959e-015
rhumerus -71.1062 1.19665 -71.8662
rradius 25.1327
rwrist -13.3314
rhand -33.2686 26.4721
rfingers 7.12502
rthumb -6.47348 -3.40896
lclavicle -1.35174e-014 6.60959e-015
lhumerus -78.3282 -1.64448 66.0999
lradius 28.4605
lwrist 26.2825
lhand -26.9507 16.6549
lfingers 7.12502
lthumb -0.372514 46.6343
rfemur -80.0219 0.0291339 18.599
rtibia 90.2757
rfoot -33.2066 -8.56615
rtoes -4.32049
lfemur -77.4208 -5.76718 -26.6229
ltibia 87.0533
lfoot -32.3887 11.2221
ltoes -1.70086
